<?xml version="1.0" encoding="UTF-8"?>
<svg id="Layer_2" data-name="Layer 2" xmlns="http://www.w3.org/2000/svg" viewBox="0 0 518.17 107.32">
  <defs>
    <style>
      .cls-1 {
        fill: #1b4be0;
      }

      .cls-2 {
        fill: #0e0a32;
      }
    </style>
  </defs>
  <g id="Layer_1-2" data-name="Layer 1">
    <g>
      <path class="cls-2" d="M0,44.64C0,21.79,16.78,5.01,40.55,5.01c19.93,0,34.96,11.77,39.27,29.13h-15.73c-3.61-9.21-12.23-15.27-23.54-15.27-15.15,0-25.4,10.84-25.4,25.76s10.26,25.87,25.4,25.87c11.31,0,19.93-6.18,23.54-15.38h15.73c-4.31,17.37-19.34,29.13-39.27,29.13C16.78,84.25,0,67.47,0,44.64Z"/>
      <path class="cls-2" d="M84.99,53.96c0-17.48,12.82-30.3,31-30.3s31,12.82,31,30.3-12.82,30.3-31,30.3-31-12.82-31-30.3ZM132.88,53.96c0-10.14-6.76-17.37-16.9-17.37s-17.01,7.23-17.01,17.37,6.88,17.36,17.01,17.36,16.9-7.23,16.9-17.36Z"/>
      <path class="cls-2" d="M355.65,55.12v-29.95h13.87v29.95c0,10.95,5.83,16.2,14.57,16.2s14.57-5.24,14.57-16.2v-29.95h13.87v29.95c0,19.23-11.42,29.13-28.43,29.13s-28.43-9.79-28.43-29.13Z"/>
      <path class="cls-2" d="M456.41,53.96c0-17.48,12.82-30.3,31-30.3s30.76,12.82,30.76,30.3v4.89h-47.2c1.87,8.39,8.27,12.82,16.43,12.82,6.18,0,10.72-1.75,13.63-5.48h14.8c-4.31,10.95-14.8,18.06-28.43,18.06-18.18,0-31-12.82-31-30.3ZM503.49,47.78c-2.22-7.69-8.51-11.54-16.08-11.54s-13.87,3.96-16.08,11.54h32.16Z"/>
      <path class="cls-1" d="M318.55,23.65c-7.34,0-14.2,2.46-19.73,7.08l-.17.13-.17.17c-1.34,1.08-36.57,36.57-36.57,36.57-2.98,2.72-6.99,4.23-11.18,4.23-2.2,0-4.26-.43-6.2-1.2l23.91-23.91,8.55-8.55c-1.88-2.98-4.25-5.6-6.97-7.76-.91-.72-1.86-1.39-2.84-2-4.84-3.02-10.53-4.75-16.45-4.75-17.1,0-31,13.9-31,31s13.9,31,31,31c7.68,0,14.94-2.76,20.51-7.81l36.65-36.65c2.98-2.42,6.69-3.71,10.66-3.71,9.45,0,17.18,7.73,17.18,17.18s-7.73,17.18-17.18,17.18c-8.12,0-15.02-5.57-16.75-13.34l-14.29,14.29v34.54l13.82-12.59v-14.26c4.92,3.28,10.88,5.18,17.23,5.18,17.1,0,31-13.9,31-31s-13.9-31-31-31ZM250.73,37.46c2.16,0,4.27.43,6.22,1.21,0,0,0,0,.01,0h0s-22.19,22.24-22.19,22.24h0s0,0,0,0c-.78-1.94-1.21-4.06-1.21-6.26,0-9.46,7.73-17.18,17.18-17.18Z"/>
      <path class="cls-2" d="M199.95,10.79v16.68c-4.92-3.29-10.83-5.22-17.18-5.22-17.09,0-31,13.9-31,31s13.91,31,31,31,31-13.9,31-31V0l-13.82,10.79ZM182.77,70.44c-9.48,0-17.18-7.71-17.18-17.19s7.71-17.18,17.18-17.18,17.18,7.71,17.18,17.18-7.71,17.19-17.18,17.19Z"/>
      <path class="cls-2" d="M446.24,23.66c-15,.02-25.23,8.3-25.23,25.63v33.45h13.87v-33.45c0-9.29,4.64-12.68,11.36-12.7h7.48v-12.93h-7.48Z"/>
    </g>
  </g>
</svg>